<svg version="1.1" id="Layer_1" xmlns="http://www.w3.org/2000/svg" xmlns:xlink="http://www.w3.org/1999/xlink" x="0px" y="0px"
	 width="100%" viewBox="0 0 512 512" enable-background="new 0 0 512 512" xml:space="preserve">
<path fill="#000000" opacity="1.000000" stroke="none" 
	d="
M1.000000,135.000000 
	C1.000000,90.000000 1.000000,45.500000 1.000000,1.000000 
	C171.666672,1.000000 342.333344,1.000000 513.000000,1.000000 
	C513.000000,171.666672 513.000000,342.333344 513.000000,513.000000 
	C342.333344,513.000000 171.666672,513.000000 1.000000,513.000000 
	C1.000000,387.166656 1.000000,261.333344 1.000000,135.000000 
M479.957733,211.481857 
	C479.904755,211.318359 479.851776,211.154846 479.930237,210.063309 
	C479.876221,181.086792 479.822235,152.110275 479.946899,122.195770 
	C481.483521,106.717232 478.623260,91.578888 472.002594,78.020081 
	C460.791229,55.059788 441.476990,40.760235 416.576416,35.199883 
	C408.073517,33.301163 398.888123,34.458908 389.084137,34.074249 
	C359.739990,34.124928 330.395874,34.175606 300.118652,34.056522 
	C270.760254,34.114437 241.401886,34.172352 211.110840,34.084309 
	C181.756638,34.131283 152.402451,34.178261 122.119659,34.055611 
	C118.133095,34.049072 114.124451,33.769978 110.164383,34.090614 
	C100.844933,34.845192 91.532150,35.265968 82.787025,39.576687 
	C69.319801,46.215061 58.574192,55.746006 49.068558,67.274864 
	C41.967098,75.887840 38.781101,86.259552 35.607819,96.208565 
	C32.957203,104.518906 34.533066,114.177315 34.091549,124.121529 
	C34.127872,153.077087 34.164196,182.032639 34.051212,211.517609 
	C34.099495,211.694504 34.147781,211.871384 34.092918,212.519394 
	C34.092918,212.519394 34.215054,212.985947 34.102356,213.492157 
	C34.138046,213.661392 34.173733,213.830612 34.067982,214.927628 
	C34.122261,243.660995 34.176540,272.394379 34.116013,301.567688 
	C34.116013,301.567688 34.226917,302.008575 34.082813,302.499054 
	C34.131111,302.662476 34.179405,302.825867 34.090160,303.918915 
	C34.149494,332.603912 34.208828,361.288940 34.129356,390.386169 
	C34.129356,390.386169 34.219257,390.811768 34.101711,391.409119 
	C34.136395,391.608490 34.171078,391.807892 34.065670,392.932434 
	C34.058613,396.262939 33.595863,399.668793 34.131405,402.909607 
	C35.635803,412.013519 36.115597,421.661743 39.655151,429.962952 
	C44.478958,441.276093 51.670589,451.590790 61.335945,459.770966 
	C76.561455,472.656921 93.883560,479.929749 114.941811,479.884064 
	C117.967941,479.837402 120.994072,479.790710 124.944794,479.889740 
	C153.637543,479.833923 182.330276,479.778076 211.682159,479.879181 
	C212.128159,479.834015 212.574158,479.788849 213.944061,479.894745 
	C242.985809,479.835083 272.027557,479.775421 301.984436,479.882660 
	C335.461456,479.905090 368.938690,479.983704 402.415314,479.880188 
	C406.691711,479.866974 411.049744,479.275513 415.226898,478.323975 
	C457.084808,468.788818 482.750000,433.919800 479.903229,389.950989 
	C479.853149,360.337067 479.803070,330.723175 479.937073,300.168823 
	C479.892151,271.044281 479.847198,241.919754 479.935394,212.390137 
	C479.935394,212.390137 479.816132,211.977646 479.957733,211.481857 
M32.080227,213.724884 
	C32.126896,242.849411 32.173565,271.973938 32.089436,302.015167 
	C32.089436,331.267609 32.089436,360.520050 32.089436,389.772491 
	C32.700603,389.350433 32.951374,388.904572 32.950703,388.459106 
	C32.906677,359.338623 32.842312,330.218140 32.919006,300.151733 
	C32.889809,271.015869 32.860607,241.879974 32.951511,211.846085 
	C32.951511,182.610367 32.951511,153.374634 32.951511,124.138916 
	C32.690643,124.138992 32.429771,124.139061 32.168903,124.139130 
	C32.168903,153.674545 32.168903,183.209961 32.080227,213.724884 
M481.960571,211.986740 
	C481.960571,182.701065 481.960571,153.415390 481.960571,124.129723 
	C481.691467,124.130699 481.422363,124.131683 481.153259,124.132668 
	C481.153259,153.723907 481.153259,183.315155 481.036865,213.854828 
	C481.080750,242.921371 481.124664,271.987915 481.051392,301.978363 
	C481.051392,331.267548 481.051392,360.556732 481.051392,389.845917 
	C481.311401,389.844940 481.571411,389.843933 481.831421,389.842926 
	C481.831421,360.246704 481.831421,330.650482 481.959076,300.114410 
	C481.921661,271.044952 481.884216,241.975479 481.960571,211.986740 
M212.946457,481.934875 
	C242.634995,481.905060 272.323517,481.875275 302.943451,481.940552 
	C336.514282,481.940552 370.085144,481.940552 403.655975,481.940552 
	C403.655945,481.678558 403.655884,481.416534 403.655853,481.154541 
	C369.774567,481.154541 335.893311,481.154541 301.077728,481.051483 
	C271.390869,481.092712 241.703995,481.133911 211.082886,481.070862 
	C177.612961,481.070862 144.143036,481.070862 110.673103,481.070862 
	C110.673927,481.322205 110.674751,481.573547 110.675575,481.824890 
	C144.456039,481.824890 178.236511,481.824890 212.946457,481.934875 
M301.945892,32.951176 
	C336.250793,32.951176 370.555695,32.951176 404.860565,32.951176 
	C404.398407,32.199593 403.922180,32.009247 403.446259,32.009846 
	C369.303436,32.053123 335.160675,32.111599 300.085022,32.050503 
	C241.445496,32.050503 182.805954,32.050503 124.166428,32.050503 
	C124.165756,32.366707 124.165077,32.682915 124.164398,32.999119 
	C125.971031,32.999119 127.777672,32.999119 129.584305,32.999119 
	C172.236450,32.999119 214.888596,33.013027 257.540741,32.991413 
	C272.033081,32.984070 286.525391,32.887157 301.945892,32.951176 
z"/>
<path fill="#50B5D5" opacity="1.000000" stroke="none" 
	d="
M34.219257,390.811768 
	C34.219257,390.811768 34.129356,390.386169 34.530434,389.998657 
	C35.287670,387.889587 35.950466,386.168762 35.954155,384.446472 
	C36.012974,356.986877 35.987503,329.527161 35.998219,301.882263 
	C36.015175,301.697113 36.047314,301.328064 36.294537,301.276001 
	C36.703472,301.176880 36.865185,301.129822 37.492126,301.103577 
	C65.961685,301.113922 93.966003,301.103424 122.240601,301.174805 
	C122.685608,301.326752 122.860336,301.396820 123.028580,301.906250 
	C122.997177,331.710419 122.972252,361.075317 122.945053,390.565582 
	C122.942780,390.690979 122.978981,390.939178 122.513092,390.908936 
	C92.771225,390.856415 63.495239,390.834076 34.219257,390.811768 
z"/>
<path fill="#7068C0" opacity="1.000000" stroke="none" 
	d="
M124.020203,479.744049 
	C120.994072,479.790710 117.967941,479.837402 114.662445,479.489807 
	C114.936966,478.770721 115.459572,478.243011 116.049500,478.152130 
	C123.005486,477.080078 123.011108,477.097290 123.011559,470.266479 
	C123.013283,444.181458 123.012917,418.096405 123.009491,391.743164 
	C122.996765,391.296356 122.987869,391.117767 122.978981,390.939178 
	C122.978981,390.939178 122.942780,390.690979 123.408997,390.680969 
	C153.237030,390.732513 182.598862,390.794037 211.976349,391.333038 
	C211.999557,418.624664 212.027496,445.438812 211.971786,472.252838 
	C211.967789,474.178619 211.352631,476.103119 210.550781,478.019684 
	C183.312866,478.007446 156.545624,477.967987 129.778976,478.075195 
	C127.857178,478.082886 125.939690,479.162689 124.020203,479.744049 
z"/>
<path fill="#8179C8" opacity="1.000000" stroke="none" 
	d="
M211.021622,478.028229 
	C211.352631,476.103119 211.967789,474.178619 211.971786,472.252838 
	C212.027496,445.438812 211.999557,418.624664 211.972839,391.237915 
	C211.953644,390.665314 211.973404,390.476044 212.435043,390.587799 
	C242.254059,390.758118 271.611450,390.816711 300.981262,391.351624 
	C300.995026,420.550323 300.996307,449.272736 300.529053,477.996582 
	C272.966187,477.998688 245.871674,477.964020 218.777756,478.075073 
	C216.856308,478.082947 214.939270,479.162476 213.020172,479.743713 
	C212.574158,479.788849 212.128159,479.834015 211.350998,479.518188 
	C211.020432,478.780884 211.021027,478.404572 211.021622,478.028229 
z"/>
<path fill="#A09BD6" opacity="1.000000" stroke="none" 
	d="
M479.754944,390.852570 
	C482.750000,433.919800 457.084808,468.788818 415.226898,478.323975 
	C411.049744,479.275513 406.691711,479.866974 402.415314,479.880188 
	C368.938690,479.983704 335.461456,479.905090 301.550720,479.642578 
	C301.116974,479.402496 301.120300,479.085571 301.288818,478.923279 
	C301.671631,478.531433 301.859741,478.282104 302.488922,478.011597 
	C329.941620,478.008728 356.927826,477.900146 383.911652,478.104431 
	C388.767639,478.141205 390.137390,476.601837 390.108521,471.837158 
	C389.944916,444.853516 390.080322,417.868103 390.570618,390.892761 
	C403.024353,390.910645 415.021545,390.957306 427.018463,390.918457 
	C444.341064,390.862366 461.663483,390.744202 479.183746,390.681213 
	C479.381531,390.709900 479.754944,390.852570 479.754944,390.852570 
z"/>
<path fill="#F3A08C" opacity="1.000000" stroke="none" 
	d="
M390.014587,34.220139 
	C398.888123,34.458908 408.073517,33.301163 416.576416,35.199883 
	C441.476990,40.760235 460.791229,55.059788 472.002594,78.020081 
	C478.623260,91.578888 481.483521,106.717232 479.667511,122.705223 
	C479.388123,123.214676 479.000031,123.240967 478.535339,123.174164 
	C448.746796,123.099968 419.422974,123.092575 390.080688,122.611542 
	C390.041077,93.428421 390.019928,64.718964 390.000793,35.711269 
	C390.006744,35.015408 390.010651,34.617771 390.014587,34.220139 
z"/>
<path fill="#EC6140" opacity="1.000000" stroke="none" 
	d="
M34.237221,123.238724 
	C34.533066,114.177315 32.957203,104.518906 35.607819,96.208565 
	C38.781101,86.259552 41.967098,75.887840 49.068558,67.274864 
	C58.574192,55.746006 69.319801,46.215061 82.787025,39.576687 
	C91.532150,35.265968 100.844933,34.845192 110.164383,34.090614 
	C114.124451,33.769978 118.133095,34.049072 122.586411,34.434639 
	C123.052864,35.205898 123.052551,35.598137 123.040375,36.459885 
	C123.009773,65.660362 122.991035,94.391327 122.505478,123.131462 
	C105.039543,123.135910 88.040329,123.091316 71.041374,123.140015 
	C59.050285,123.174370 47.059559,123.335335 34.858597,123.398659 
	C34.648521,123.357544 34.237221,123.238724 34.237221,123.238724 
z"/>
<path fill="#6158BA" opacity="1.000000" stroke="none" 
	d="
M123.013329,392.011383 
	C123.012917,418.096405 123.013283,444.181458 123.011559,470.266479 
	C123.011108,477.097290 123.005486,477.080078 116.049500,478.152130 
	C115.459572,478.243011 114.936966,478.770721 114.214600,479.423004 
	C93.883560,479.929749 76.561455,472.656921 61.335945,459.770966 
	C51.670589,451.590790 44.478958,441.276093 39.655151,429.962952 
	C36.115597,421.661743 35.635803,412.013519 34.131405,402.909607 
	C33.595863,399.668793 34.058613,396.262939 34.590912,392.466858 
	C64.415215,392.004669 93.714272,392.008026 123.013329,392.011383 
z"/>
<path fill="#C6B16C" opacity="1.000000" stroke="none" 
	d="
M34.215054,212.985947 
	C34.215054,212.985947 34.092918,212.519394 34.352501,212.262054 
	C34.612087,212.004700 35.025784,211.942947 35.266380,211.952179 
	C35.506981,211.961395 35.988132,211.941772 36.457375,211.968231 
	C65.623894,211.980438 94.321175,211.966187 123.484596,211.969513 
	C153.296478,211.972351 182.642212,211.957611 212.257111,211.986603 
	C213.028992,212.225281 213.531708,212.420242 213.698059,212.728607 
	C212.895432,212.932144 212.429184,213.022293 211.498291,213.070221 
	C181.685989,213.058838 152.338303,213.089676 122.524796,213.071869 
	C92.777657,213.010788 63.496353,212.998367 34.215054,212.985947 
z"/>
<path fill="#A1E3F7" opacity="1.000000" stroke="none" 
	d="
M479.829102,390.401794 
	C479.754944,390.852570 479.381531,390.709900 478.999084,390.345795 
	C478.411072,387.849304 478.030029,385.717194 478.026611,383.584503 
	C477.982819,356.145844 477.992920,328.707123 478.282471,301.233185 
	C478.968048,301.168396 479.360504,301.138824 479.752991,301.109253 
	C479.803070,330.723175 479.853149,360.337067 479.829102,390.401794 
z"/>
<path fill="#884433" opacity="1.000000" stroke="none" 
	d="
M301.017700,32.831169 
	C286.525391,32.887157 272.033081,32.984070 257.540741,32.991413 
	C214.888596,33.013027 172.236450,32.999119 129.584305,32.999119 
	C127.777672,32.999119 125.971031,32.999119 124.164398,32.999119 
	C124.165077,32.682915 124.165756,32.366707 124.166428,32.050503 
	C182.805954,32.050503 241.445496,32.050503 300.550903,32.275246 
	C301.016815,32.499985 301.017700,32.831169 301.017700,32.831169 
z"/>
<path fill="#FF9B82" opacity="1.000000" stroke="none" 
	d="
M389.549377,34.147194 
	C390.010651,34.617771 390.006744,35.015408 389.532288,35.708164 
	C359.728394,35.998371 330.394989,35.993458 301.058228,35.694839 
	C301.053833,35.009521 301.052795,34.617901 301.051758,34.226288 
	C330.395874,34.175606 359.739990,34.124928 389.549377,34.147194 
z"/>
<path fill="#FF7959" opacity="1.000000" stroke="none" 
	d="
M123.052246,35.990372 
	C123.052551,35.598137 123.052864,35.205898 123.050705,34.519447 
	C152.402451,34.178261 181.756638,34.131283 211.580505,34.348545 
	C212.050186,34.612782 212.060684,34.995197 212.042862,35.248695 
	C212.017288,35.671398 212.009552,35.840595 211.533066,36.007347 
	C181.726944,36.000061 152.389603,35.995216 123.052246,35.990372 
z"/>
<path fill="#9FD2B6" opacity="1.000000" stroke="none" 
	d="
M479.845032,300.639038 
	C479.360504,301.138824 478.968048,301.168396 478.280609,301.159668 
	C477.985626,301.121338 477.989471,300.974243 477.991730,300.508362 
	C477.994781,273.431641 478.022491,246.820709 477.951294,220.210052 
	C477.944763,217.767960 477.306244,215.327545 477.217957,212.803253 
	C477.644806,212.661636 477.814941,212.603104 478.282745,212.619003 
	C478.987671,212.727356 479.394989,212.761292 479.802277,212.795227 
	C479.847198,241.919754 479.892151,271.044281 479.845032,300.639038 
z"/>
<path fill="#F0866C" opacity="1.000000" stroke="none" 
	d="
M212.060684,34.995197 
	C212.060684,34.995197 212.050186,34.612782 212.046844,34.421524 
	C241.401886,34.172352 270.760254,34.114437 300.585205,34.141403 
	C301.052795,34.617901 301.053833,35.009521 301.038330,35.699081 
	C301.021759,35.997021 300.982483,36.003841 300.515808,36.002834 
	C273.155487,36.001553 246.261810,36.027115 219.368347,35.957260 
	C216.931641,35.950932 214.496536,35.330467 212.060684,34.995197 
z"/>
<path fill="#8B82D7" opacity="1.000000" stroke="none" 
	d="
M301.120300,479.085571 
	C301.120300,479.085571 301.116974,479.402496 301.093140,479.559113 
	C272.027557,479.775421 242.985809,479.835083 213.482117,479.819214 
	C214.939270,479.162476 216.856308,478.082947 218.777756,478.075073 
	C245.871674,477.964020 272.966187,477.998688 300.533386,477.999023 
	C301.006226,478.000000 301.017853,478.001190 301.035492,478.273041 
	C301.075500,478.725098 301.097900,478.905334 301.120300,479.085571 
z"/>
<path fill="#FFDD95" opacity="1.000000" stroke="none" 
	d="
M479.000031,123.240967 
	C479.000031,123.240967 479.388123,123.214676 479.578186,123.174217 
	C479.822235,152.110275 479.876221,181.086792 479.705933,210.660950 
	C479.292358,211.463287 479.143860,211.694183 478.779938,211.971268 
	C478.352600,211.997192 478.181396,212.003143 478.007172,211.539490 
	C478.002747,184.054840 477.977570,157.039734 478.043365,130.024841 
	C478.048889,127.762787 478.666687,125.502220 479.000031,123.240967 
z"/>
<path fill="#FFBB42" opacity="1.000000" stroke="none" 
	d="
M35.988132,211.941772 
	C35.988132,211.941772 35.506981,211.961395 35.154194,211.772308 
	C34.638103,211.347519 34.437809,211.149170 34.200523,210.988190 
	C34.164196,182.032639 34.127872,153.077087 34.164383,123.680130 
	C34.237221,123.238724 34.648521,123.357544 35.034485,123.729828 
	C35.613667,125.906990 35.973114,127.711693 35.975204,129.516800 
	C36.007042,156.991760 35.992126,184.466766 35.988132,211.941772 
z"/>
<path fill="#56C4E5" opacity="1.000000" stroke="none" 
	d="
M35.981262,302.067444 
	C35.987503,329.527161 36.012974,356.986877 35.954155,384.446472 
	C35.950466,386.168762 35.287670,387.889587 34.599838,389.792542 
	C34.208828,361.288940 34.149494,332.603912 34.322262,303.325653 
	C34.749832,302.533752 34.914486,302.312195 35.281559,302.062531 
	C35.514790,302.057343 35.981262,302.067444 35.981262,302.067444 
z"/>
<path fill="#5EB183" opacity="1.000000" stroke="none" 
	d="
M37.026897,301.082733 
	C36.865185,301.129822 36.703472,301.176880 35.997040,301.200989 
	C35.045151,301.161285 34.637985,301.144531 34.230820,301.127747 
	C34.176540,272.394379 34.122261,243.660995 34.437866,214.466034 
	C35.206585,214.010712 35.605419,214.016983 36.003609,214.489594 
	C36.002655,241.224091 35.975353,267.492340 36.046661,293.760315 
	C36.053288,296.201996 36.685276,298.641968 37.026897,301.082733 
z"/>
<path fill="#7870CE" opacity="1.000000" stroke="none" 
	d="
M210.550781,478.019684 
	C211.021027,478.404572 211.020432,478.780884 211.021423,479.439758 
	C182.330276,479.778076 153.637543,479.833923 124.482498,479.816895 
	C125.939690,479.162689 127.857178,478.082886 129.778976,478.075195 
	C156.545624,477.967987 183.312866,478.007446 210.550781,478.019684 
z"/>
<path fill="#895546" opacity="1.000000" stroke="none" 
	d="
M301.481812,32.891174 
	C301.017700,32.831169 301.016815,32.499985 301.017334,32.334404 
	C335.160675,32.111599 369.303436,32.053123 403.446259,32.009846 
	C403.922180,32.009247 404.398407,32.199593 404.860565,32.951176 
	C370.555695,32.951176 336.250793,32.951176 301.481812,32.891174 
z"/>
<path fill="#3F3F59" opacity="1.000000" stroke="none" 
	d="
M302.012024,481.154541 
	C335.893311,481.154541 369.774567,481.154541 403.655853,481.154541 
	C403.655884,481.416534 403.655945,481.678558 403.655975,481.940552 
	C370.085144,481.940552 336.514282,481.940552 302.476807,481.720398 
	C302.010132,481.500244 302.012024,481.154541 302.012024,481.154541 
z"/>
<path fill="#2B2A56" opacity="1.000000" stroke="none" 
	d="
M212.016983,481.824890 
	C178.236511,481.824890 144.456039,481.824890 110.675575,481.824890 
	C110.674751,481.573547 110.673927,481.322205 110.673103,481.070862 
	C144.143036,481.070862 177.612961,481.070862 211.549286,481.285217 
	C212.015701,481.499603 212.016983,481.824890 212.016983,481.824890 
z"/>
<path fill="#353558" opacity="1.000000" stroke="none" 
	d="
M212.481720,481.879883 
	C212.016983,481.824890 212.015701,481.499603 212.016418,481.337341 
	C241.703995,481.133911 271.390869,481.092712 301.544861,481.103027 
	C302.012024,481.154541 302.010132,481.500244 302.011108,481.672852 
	C272.323517,481.875275 242.634995,481.905060 212.481720,481.879883 
z"/>
<path fill="#496D79" opacity="1.000000" stroke="none" 
	d="
M481.831421,301.054260 
	C481.831421,330.650482 481.831421,360.246704 481.831421,389.842926 
	C481.571411,389.843933 481.311401,389.844940 481.051392,389.845917 
	C481.051392,360.556732 481.051392,331.267548 481.275696,301.513824 
	C481.500000,301.049286 481.831421,301.054260 481.831421,301.054260 
z"/>
<path fill="#796D49" opacity="1.000000" stroke="none" 
	d="
M481.153259,212.906403 
	C481.153259,183.315155 481.153259,153.723907 481.153259,124.132668 
	C481.422363,124.131683 481.691467,124.130699 481.960571,124.129723 
	C481.960571,153.415390 481.960571,182.701065 481.730255,212.452286 
	C481.499939,212.917831 481.153259,212.906403 481.153259,212.906403 
z"/>
<path fill="#24606D" opacity="1.000000" stroke="none" 
	d="
M32.779739,301.097687 
	C32.842312,330.218140 32.906677,359.338623 32.950703,388.459106 
	C32.951374,388.904572 32.700603,389.350433 32.089436,389.772491 
	C32.089436,360.520050 32.089436,331.267609 32.294617,301.556335 
	C32.499794,301.097534 32.779739,301.097687 32.779739,301.097687 
z"/>
<path fill="#795518" opacity="1.000000" stroke="none" 
	d="
M32.168903,212.745377 
	C32.168903,183.209961 32.168903,153.674545 32.168903,124.139130 
	C32.429771,124.139061 32.690643,124.138992 32.951511,124.138916 
	C32.951511,153.374634 32.951511,182.610367 32.725662,212.304916 
	C32.499817,212.763748 32.168903,212.745377 32.168903,212.745377 
z"/>
<path fill="#6249B8" opacity="1.000000" stroke="none" 
	d="
M123.009491,391.743164 
	C93.714272,392.008026 64.415215,392.004669 34.660957,392.004272 
	C34.171078,391.807892 34.136395,391.608490 34.160484,391.110443 
	C63.495239,390.834076 92.771225,390.856415 122.513092,390.908936 
	C122.987869,391.117767 122.996765,391.296356 123.009491,391.743164 
z"/>
<path fill="#3BB086" opacity="1.000000" stroke="none" 
	d="
M36.004253,214.023270 
	C35.605419,214.016983 35.206585,214.010712 34.508583,214.002136 
	C34.173733,213.830612 34.138046,213.661392 34.158707,213.239044 
	C63.496353,212.998367 92.777657,213.010788 122.524567,213.286911 
	C122.990173,213.550613 122.978462,213.980820 122.562950,213.984634 
	C120.762375,214.003189 119.377319,214.017929 117.524612,214.022293 
	C91.707344,214.018829 66.357712,214.025742 40.591057,214.023956 
	C38.784107,214.017899 37.394180,214.020584 36.004253,214.023270 
z"/>
<path fill="#496D55" opacity="1.000000" stroke="none" 
	d="
M481.095062,213.380615 
	C481.153259,212.906403 481.499939,212.917831 481.673340,212.911926 
	C481.884216,241.975479 481.921661,271.044952 481.895264,300.584351 
	C481.831421,301.054260 481.500000,301.049286 481.334290,301.051880 
	C481.124664,271.987915 481.080750,242.921371 481.095062,213.380615 
z"/>
<path fill="#31553D" opacity="1.000000" stroke="none" 
	d="
M32.124565,213.235138 
	C32.168903,212.745377 32.499817,212.763748 32.665611,212.753922 
	C32.860607,241.879974 32.889809,271.015869 32.849373,300.624695 
	C32.779739,301.097687 32.499794,301.097534 32.360016,301.098022 
	C32.173565,271.973938 32.126896,242.849411 32.124565,213.235138 
z"/>
<path fill="#5CB4CB" opacity="1.000000" stroke="none" 
	d="
M34.173416,301.347717 
	C34.637985,301.144531 35.045151,301.161285 35.749817,301.253052 
	C36.047314,301.328064 36.015175,301.697113 35.998219,301.882263 
	C35.981262,302.067444 35.514790,302.057343 35.076229,302.044067 
	C34.637669,302.030823 34.226917,302.008575 34.226917,302.008575 
	C34.226917,302.008575 34.116013,301.567688 34.173416,301.347717 
z"/>
<path fill="#E7C78B" opacity="1.000000" stroke="none" 
	d="
M478.010223,212.009094 
	C478.181396,212.003143 478.352600,211.997192 478.974609,211.981262 
	C479.425446,211.971268 479.816132,211.977646 479.816132,211.977646 
	C479.816132,211.977646 479.935394,212.390137 479.868835,212.592682 
	C479.394989,212.761292 478.987671,212.727356 478.285492,212.486084 
	C477.990601,212.278763 478.010223,212.009094 478.010223,212.009094 
z"/>
<path fill="#50B5D5" opacity="1.000000" stroke="none" 
	d="
M34.154865,302.253815 
	C34.226917,302.008575 34.637669,302.030823 34.842999,302.049255 
	C34.914486,302.312195 34.749832,302.533752 34.391033,302.860840 
	C34.179405,302.825867 34.131111,302.662476 34.154865,302.253815 
z"/>
<path fill="#ECC383" opacity="1.000000" stroke="none" 
	d="
M479.886932,211.729752 
	C479.816132,211.977646 479.425446,211.971268 479.230774,211.961273 
	C479.143860,211.694183 479.292358,211.463287 479.640198,211.124969 
	C479.851776,211.154846 479.904755,211.318359 479.886932,211.729752 
z"/>
<path fill="#E8A539" opacity="1.000000" stroke="none" 
	d="
M34.125870,211.252899 
	C34.437809,211.149170 34.638103,211.347519 34.913597,211.763092 
	C35.025784,211.942947 34.612087,212.004700 34.404076,212.026489 
	C34.147781,211.871384 34.099495,211.694504 34.125870,211.252899 
z"/>
<path fill="#5DB082" opacity="1.000000" stroke="none" 
	d="
M36.003609,214.489594 
	C37.394180,214.020584 38.784107,214.017899 40.747810,214.378845 
	C42.681873,215.160568 44.040966,215.938568 45.402637,215.943115 
	C68.059624,216.018738 90.717140,216.035721 113.373703,215.913284 
	C114.916565,215.904938 116.452888,214.687683 117.992249,214.032669 
	C119.377319,214.017929 120.762375,214.003189 122.816986,213.994324 
	C123.655785,214.004623 123.825050,214.009048 123.991768,214.463837 
	C123.991600,221.943802 123.993965,228.973434 123.848503,236.338593 
	C123.468292,238.114273 123.235916,239.554382 122.666077,241.062912 
	C114.853409,245.602814 111.908791,252.903320 110.319756,260.885437 
	C108.295654,271.052979 113.875244,285.849457 123.142494,290.340393 
	C123.185143,293.782867 123.094048,296.892670 122.802620,300.155334 
	C122.391632,300.569763 122.180977,300.831329 121.970322,301.092926 
	C93.966003,301.103424 65.961685,301.113922 37.492126,301.103577 
	C36.685276,298.641968 36.053288,296.201996 36.046661,293.760315 
	C35.975353,267.492340 36.002655,241.224091 36.003609,214.489594 
z"/>
<path fill="#61BCD8" opacity="1.000000" stroke="none" 
	d="
M211.957153,390.760437 
	C182.598862,390.794037 153.237030,390.732513 123.411270,390.555603 
	C122.972252,361.075317 122.997177,331.710419 123.044640,301.809875 
	C123.067177,301.274231 123.066933,301.082733 123.520477,301.098999 
	C127.622993,301.222778 131.271957,301.330261 134.947723,301.771851 
	C135.998047,303.918274 136.681686,306.068146 138.096054,307.492340 
	C159.259872,328.802643 180.455521,350.082642 201.834656,371.176208 
	C204.689117,373.992554 208.587677,375.750641 212.003967,378.376373 
	C212.014114,379.509796 212.023041,380.265656 212.028687,381.466431 
	C212.008072,384.766266 211.990738,387.621155 211.973404,390.476044 
	C211.973404,390.476044 211.953644,390.665314 211.957153,390.760437 
z"/>
<path fill="#5EB183" opacity="1.000000" stroke="none" 
	d="
M122.240601,301.174805 
	C122.180977,300.831329 122.391632,300.569763 122.815872,300.425537 
	C123.041946,300.722839 123.054443,300.902771 123.066933,301.082733 
	C123.066933,301.082733 123.067177,301.274231 123.051117,301.370575 
	C122.860336,301.396820 122.685608,301.326752 122.240601,301.174805 
z"/>
<path fill="#908ACE" opacity="1.000000" stroke="none" 
	d="
M390.113953,390.883270 
	C390.080322,417.868103 389.944916,444.853516 390.108521,471.837158 
	C390.137390,476.601837 388.767639,478.141205 383.911652,478.104431 
	C356.927826,477.900146 329.941620,478.008728 302.237885,478.007599 
	C301.352295,478.003723 301.185059,478.002441 301.017853,478.001190 
	C301.017853,478.001190 301.006226,478.000000 301.001892,477.997559 
	C300.996307,449.272736 300.995026,420.550323 300.979218,391.267395 
	C300.964691,390.706818 300.987915,390.538239 301.450409,390.643127 
	C313.206390,390.797729 324.500000,390.907959 335.793335,390.883209 
	C353.893829,390.843567 371.994080,390.714508 390.101318,390.688110 
	C390.108215,390.752960 390.113953,390.883270 390.113953,390.883270 
z"/>
<path fill="#73C3DC" opacity="1.000000" stroke="none" 
	d="
M212.435043,390.587799 
	C211.990738,387.621155 212.008072,384.766266 212.443466,381.461670 
	C214.809570,381.362610 216.782684,381.611023 218.701324,382.081604 
	C227.131943,384.149231 235.389435,383.548859 242.729782,378.941833 
	C247.880661,375.708984 252.622330,371.644318 256.994385,367.384247 
	C270.087006,354.627014 282.884094,341.566925 295.868652,328.697815 
	C297.348145,327.231476 299.285309,326.226959 301.011597,325.476105 
	C301.004608,347.475342 300.996277,369.006805 300.987915,390.538239 
	C300.987915,390.538239 300.964691,390.706818 300.966736,390.791046 
	C271.611450,390.816711 242.254059,390.758118 212.435043,390.587799 
z"/>
<path fill="#96D3E6" opacity="1.000000" stroke="none" 
	d="
M477.987488,301.194885 
	C477.992920,328.707123 477.982819,356.145844 478.026611,383.584503 
	C478.030029,385.717194 478.411072,387.849304 478.801300,390.317108 
	C461.663483,390.744202 444.341064,390.862366 427.018463,390.918457 
	C415.021545,390.957306 403.024353,390.910645 390.570618,390.892761 
	C390.113953,390.883270 390.108215,390.752960 390.074585,390.258728 
	C390.026764,360.270721 390.012543,330.776947 390.464355,301.232300 
	C419.950073,301.112335 448.969757,301.043304 477.989471,300.974243 
	C477.989471,300.974243 477.985626,301.121338 477.987488,301.194885 
z"/>
<path fill="#908ACF" opacity="1.000000" stroke="none" 
	d="
M301.035492,478.273041 
	C301.185059,478.002441 301.352295,478.003723 301.770569,478.008972 
	C301.859741,478.282104 301.671631,478.531433 301.288818,478.923279 
	C301.097900,478.905334 301.075500,478.725098 301.035492,478.273041 
z"/>
<path fill="#F29079" opacity="1.000000" stroke="none" 
	d="
M301.041687,35.992783 
	C330.394989,35.993458 359.728394,35.998371 389.530273,36.006393 
	C390.019928,64.718964 390.041077,93.428421 390.076599,122.653648 
	C390.090942,123.169411 390.075989,123.254143 389.601349,123.194305 
	C377.842651,123.109299 366.558502,123.037819 355.274597,123.069572 
	C337.191650,123.120453 319.108917,123.239746 301.009766,123.258247 
	C300.993469,123.186371 300.987000,123.039101 300.995544,122.566750 
	C300.996857,93.397545 300.989655,64.700691 300.982483,36.003841 
	C300.982483,36.003841 301.021759,35.997021 301.041687,35.992783 
z"/>
<path fill="#F8CE8B" opacity="1.000000" stroke="none" 
	d="
M478.007172,211.539490 
	C478.010223,212.009094 477.990601,212.278763 477.987854,212.411682 
	C477.814941,212.603104 477.644806,212.661636 476.754272,212.774719 
	C469.241211,212.820221 462.448364,212.838715 455.655945,212.796631 
	C439.427002,212.696075 423.198242,212.566956 407.021729,212.081772 
	C407.381744,207.100327 408.183685,202.455917 407.900421,197.878632 
	C407.176758,186.183411 400.527985,178.092529 390.858337,171.668320 
	C390.483582,169.890717 390.255341,168.449661 390.250183,166.678040 
	C390.635651,164.881226 390.962982,163.411804 390.934601,161.949280 
	C390.684326,149.050201 390.370789,136.152359 390.075989,123.254143 
	C390.075989,123.254143 390.090942,123.169411 390.095032,123.127304 
	C419.422974,123.092575 448.746796,123.099968 478.535339,123.174164 
	C478.666687,125.502220 478.048889,127.762787 478.043365,130.024841 
	C477.977570,157.039734 478.002747,184.054840 478.007172,211.539490 
z"/>
<path fill="#F4AE3D" opacity="1.000000" stroke="none" 
	d="
M36.457375,211.968231 
	C35.992126,184.466766 36.007042,156.991760 35.975204,129.516800 
	C35.973114,127.711693 35.613667,125.906990 35.244556,123.770935 
	C47.059559,123.335335 59.050285,123.174370 71.041374,123.140015 
	C88.040329,123.091316 105.039543,123.135910 122.506165,123.217735 
	C122.973679,123.294838 122.999252,123.467171 123.004158,123.892487 
	C123.012199,153.529175 123.015327,182.740555 123.018456,211.951920 
	C94.321175,211.966187 65.623894,211.980438 36.457375,211.968231 
z"/>
<path fill="#EE7053" opacity="1.000000" stroke="none" 
	d="
M123.040375,36.459885 
	C152.389603,35.995216 181.726944,36.000061 211.537354,36.474884 
	C212.042099,65.659950 212.073776,94.375031 212.097824,123.165588 
	C212.090179,123.241058 212.072784,123.391769 211.604095,123.327103 
	C188.222763,123.211411 165.310135,123.131592 142.397507,123.127716 
	C135.931442,123.126625 129.465332,123.347893 122.999252,123.467171 
	C122.999252,123.467171 122.973679,123.294838 122.972992,123.208565 
	C122.991035,94.391327 123.009773,65.660362 123.040375,36.459885 
z"/>
<path fill="#F5B650" opacity="1.000000" stroke="none" 
	d="
M123.004158,123.892487 
	C129.465332,123.347893 135.931442,123.126625 142.397507,123.127716 
	C165.310135,123.131592 188.222763,123.211411 211.585083,123.754860 
	C212.019165,153.479141 212.003555,182.711014 211.987946,211.942871 
	C182.642212,211.957611 153.296478,211.972351 123.484596,211.969513 
	C123.015327,182.740555 123.012199,153.529175 123.004158,123.892487 
z"/>
<path fill="#F6BE64" opacity="1.000000" stroke="none" 
	d="
M212.257111,211.986603 
	C212.003555,182.711014 212.019165,153.479141 212.053772,123.819519 
	C212.072784,123.391769 212.090179,123.241058 212.555466,123.166191 
	C242.342834,123.073914 271.664917,123.056503 300.987000,123.039093 
	C300.987000,123.039101 300.993469,123.186371 301.005554,123.691574 
	C301.014648,141.671814 300.968445,159.147064 301.052826,176.621658 
	C301.066345,179.416489 301.664917,182.208496 301.852173,185.318771 
	C301.475006,186.757294 301.238739,187.878830 300.665588,189.066833 
	C293.546387,195.637878 286.716888,202.094910 280.043823,208.709686 
	C279.246185,209.500336 279.299377,211.149292 278.503845,212.502701 
	C256.711182,212.608398 235.372803,212.611801 214.034439,212.615204 
	C213.531708,212.420242 213.028992,212.225281 212.257111,211.986603 
z"/>
<path fill="#54B590" opacity="1.000000" stroke="none" 
	d="
M123.994308,214.013489 
	C123.825050,214.009048 123.655785,214.004623 123.232498,213.990509 
	C122.978462,213.980820 122.990173,213.550613 122.990402,213.335571 
	C152.338303,213.089676 181.685989,213.058838 211.508453,213.289078 
	C211.983231,213.550171 211.988937,213.988831 211.521545,213.991455 
	C199.038300,214.001144 187.022476,214.008240 174.537598,214.011200 
	C166.376968,214.009903 158.685379,214.012711 150.525833,214.010986 
	C141.370026,214.008804 132.682159,214.011139 123.994308,214.013489 
z"/>
<path fill="#6ABF9D" opacity="1.000000" stroke="none" 
	d="
M211.988937,213.988831 
	C211.988937,213.988831 211.983231,213.550171 211.973083,213.331299 
	C212.429184,213.022293 212.895432,212.932144 213.698059,212.728607 
	C235.372803,212.611801 256.711182,212.608398 278.880310,212.619080 
	C280.492218,212.726059 281.273346,212.818954 281.903168,213.119537 
	C281.496246,213.552002 281.240631,213.776794 280.541687,213.999847 
	C277.730499,214.001495 275.362640,214.004868 272.526428,214.006546 
	C252.055267,214.013412 232.052429,214.021973 212.034515,214.020096 
	C212.019455,214.009674 211.988937,213.988831 211.988937,213.988831 
z"/>
<path fill="#F18166" opacity="1.000000" stroke="none" 
	d="
M300.995544,122.566742 
	C271.664917,123.056503 242.342834,123.073914 212.563110,123.090721 
	C212.073776,94.375031 212.042099,65.659950 212.006119,36.477329 
	C212.009552,35.840595 212.017288,35.671398 212.042862,35.248695 
	C214.496536,35.330467 216.931641,35.950932 219.368347,35.957260 
	C246.261810,36.027115 273.155487,36.001553 300.515808,36.002834 
	C300.989655,64.700691 300.996857,93.397545 300.995544,122.566742 
z"/>
<path fill="#9ED0B4" opacity="1.000000" stroke="none" 
	d="
M406.969391,212.449371 
	C423.198242,212.566956 439.427002,212.696075 455.655945,212.796631 
	C462.448364,212.838715 469.241211,212.820221 476.497528,212.857819 
	C477.306244,215.327545 477.944763,217.767960 477.951294,220.210052 
	C478.022491,246.820709 477.994781,273.431641 477.991730,300.508362 
	C448.969757,301.043304 419.950073,301.112335 390.455688,301.170166 
	C389.981049,301.158936 389.979004,301.039368 389.989197,300.566956 
	C390.323212,279.988129 390.664886,259.881989 390.927887,239.774780 
	C390.944305,238.518784 390.343842,237.254730 390.028717,235.599030 
	C390.046417,234.149124 390.065796,233.094574 390.455200,232.025665 
	C399.620575,228.544067 403.927002,221.276993 406.966125,212.817169 
	C406.963013,212.694580 406.969391,212.449371 406.969391,212.449371 
z"/>
<path fill="#5EB183" opacity="1.000000" stroke="none" 
	d="
M117.524612,214.022278 
	C116.452888,214.687683 114.916565,215.904938 113.373703,215.913284 
	C90.717140,216.035721 68.059624,216.018738 45.402637,215.943115 
	C44.040966,215.938568 42.681873,215.160568 41.164833,214.387573 
	C66.357712,214.025742 91.707344,214.018829 117.524612,214.022278 
z"/>
<path fill="#67AD86" opacity="1.000000" stroke="none" 
	d="
M150.993790,214.015518 
	C158.685379,214.012711 166.376968,214.009903 174.633911,214.335297 
	C177.449768,216.261749 179.916153,217.629379 181.913040,219.498596 
	C190.092682,227.155197 198.070877,235.027298 206.269028,242.663559 
	C207.849472,244.135681 210.085144,244.904388 212.019165,246.394821 
	C212.036896,247.850983 212.054047,248.909882 212.052917,250.347672 
	C212.023895,251.484131 212.013168,252.241699 211.665436,252.933350 
	C209.899826,251.760025 208.363739,250.765732 207.060211,249.526749 
	C198.862991,241.735428 190.647186,233.961395 182.572205,226.044296 
	C171.857666,215.539230 155.213684,215.306503 145.731598,223.577133 
	C139.856445,228.701660 134.264954,234.151566 128.384048,239.269135 
	C126.913689,240.548645 124.817604,241.109070 123.007744,241.748627 
	C123.005424,241.329666 123.004478,241.162094 123.003540,240.994507 
	C123.235916,239.554382 123.468292,238.114273 124.209869,236.319427 
	C125.758736,235.513031 126.977844,235.275116 127.810074,234.576385 
	C135.380020,228.220703 142.888000,221.791031 150.386795,215.351212 
	C150.723297,215.062210 150.797440,214.467712 150.993790,214.015518 
z"/>
<path fill="#57A479" opacity="1.000000" stroke="none" 
	d="
M122.666077,241.062912 
	C123.004478,241.162094 123.005424,241.329666 123.004974,242.153198 
	C124.065582,244.893860 125.127586,246.978577 126.040848,249.369431 
	C123.890556,252.785660 121.889023,255.895782 119.549423,259.157532 
	C115.074165,268.079956 117.754250,275.411102 123.848946,282.340271 
	C123.468781,284.463470 123.240623,286.235382 123.011795,288.340668 
	C123.010338,289.118561 123.009544,289.563141 123.008751,290.007690 
	C113.875244,285.849457 108.295654,271.052979 110.319756,260.885437 
	C111.908791,252.903320 114.853409,245.602814 122.666077,241.062912 
z"/>
<path fill="#6CB58C" opacity="1.000000" stroke="none" 
	d="
M150.525833,214.010986 
	C150.797440,214.467712 150.723297,215.062210 150.386795,215.351212 
	C142.888000,221.791031 135.380020,228.220703 127.810074,234.576385 
	C126.977844,235.275116 125.758736,235.513031 124.357704,235.983887 
	C123.993965,228.973434 123.991600,221.943802 123.991768,214.463837 
	C132.682159,214.011139 141.370026,214.008804 150.525833,214.010986 
z"/>
<path fill="#68B087" opacity="1.000000" stroke="none" 
	d="
M123.142494,290.340393 
	C123.009544,289.563141 123.010338,289.118561 123.371384,288.357727 
	C129.581696,290.715210 133.494659,295.216827 135.727234,301.131287 
	C135.275436,301.290924 135.098190,301.364349 134.920929,301.437744 
	C131.271957,301.330261 127.622993,301.222778 123.520477,301.098999 
	C123.054443,300.902771 123.041946,300.722839 123.016205,300.272644 
	C123.094048,296.892670 123.185143,293.782867 123.142494,290.340393 
z"/>
<path fill="#6DBCD3" opacity="1.000000" stroke="none" 
	d="
M301.010254,325.008301 
	C299.285309,326.226959 297.348145,327.231476 295.868652,328.697815 
	C282.884094,341.566925 270.087006,354.627014 256.994385,367.384247 
	C252.622330,371.644318 247.880661,375.708984 242.729782,378.941833 
	C235.389435,383.548859 227.131943,384.149231 218.701324,382.081604 
	C216.782684,381.611023 214.809570,381.362610 212.446747,381.016724 
	C212.023041,380.265656 212.014114,379.509796 212.061218,378.036682 
	C212.409637,376.210907 212.702057,375.102417 213.362457,374.064270 
	C224.045471,378.585236 234.059753,378.743835 243.376923,371.702789 
	C246.805969,369.111420 250.108200,366.296082 253.161270,363.272919 
	C267.444519,349.129425 281.598602,334.855530 295.867920,320.697876 
	C297.346252,319.231079 299.281860,318.225128 301.007324,317.422974 
	C301.021332,319.235321 301.033234,320.630005 301.039917,322.397522 
	C301.026520,323.516357 301.018372,324.262329 301.010254,325.008301 
z"/>
<path fill="#5CB4CB" opacity="1.000000" stroke="none" 
	d="
M212.994446,373.993896 
	C212.702057,375.102417 212.409637,376.210907 212.059982,377.659119 
	C208.587677,375.750641 204.689117,373.992554 201.834656,371.176208 
	C180.455521,350.082642 159.259872,328.802643 138.096054,307.492340 
	C136.681686,306.068146 135.998047,303.918274 134.947723,301.771851 
	C135.098190,301.364349 135.275436,301.290924 136.152603,301.149170 
	C138.553024,301.077393 140.253525,301.074005 141.930237,301.156555 
	C141.906448,301.242523 141.888382,301.419983 141.944641,301.737518 
	C146.830383,307.698273 151.318237,313.682800 156.552689,318.921326 
	C172.906601,335.288116 189.510666,351.406006 206.120560,367.514343 
	C207.713089,369.058807 210.023041,369.863556 212.049713,371.323853 
	C212.397812,372.421936 212.696136,373.207916 212.994446,373.993896 
z"/>
<path fill="#84CBE1" opacity="1.000000" stroke="none" 
	d="
M301.011597,325.476105 
	C301.018372,324.262329 301.026520,323.516357 301.395691,322.372253 
	C308.053345,316.063629 314.382904,310.187256 320.590363,304.184570 
	C321.147644,303.645630 320.914948,302.289764 321.460175,301.266174 
	C323.250031,301.160522 324.628876,301.101959 326.475677,301.059387 
	C347.955414,301.063354 368.967224,301.051361 389.979004,301.039368 
	C389.979004,301.039368 389.981049,301.158936 389.989685,301.221069 
	C390.012543,330.776947 390.026764,360.270721 390.067719,390.193848 
	C371.994080,390.714508 353.893829,390.843567 335.793335,390.883209 
	C324.500000,390.907959 313.206390,390.797729 301.450409,390.643127 
	C300.996277,369.006805 301.004608,347.475342 301.011597,325.476105 
z"/>
<path fill="#F6C577" opacity="1.000000" stroke="none" 
	d="
M301.993042,185.001801 
	C301.664917,182.208496 301.066345,179.416489 301.052826,176.621658 
	C300.968445,159.147064 301.014648,141.671814 301.021851,123.763458 
	C319.108917,123.239746 337.191650,123.120453 355.274597,123.069572 
	C366.558502,123.037819 377.842651,123.109299 389.601349,123.194305 
	C390.370789,136.152359 390.684326,149.050201 390.934601,161.949280 
	C390.962982,163.411804 390.635651,164.881226 389.942078,166.530594 
	C384.499207,162.549774 379.751648,158.171036 374.642181,154.265808 
	C363.387268,145.663528 347.136932,145.414322 336.270355,154.304932 
	C328.727844,160.475952 322.175018,167.842331 314.968018,174.443176 
	C310.863007,178.202927 306.332153,181.497665 301.993042,185.001801 
z"/>
<path fill="#ECBD71" opacity="1.000000" stroke="none" 
	d="
M301.852173,185.318771 
	C306.332153,181.497665 310.863007,178.202927 314.968018,174.443176 
	C322.175018,167.842331 328.727844,160.475952 336.270355,154.304932 
	C347.136932,145.414322 363.387268,145.663528 374.642181,154.265808 
	C379.751648,158.171036 384.499207,162.549774 389.718994,166.861176 
	C390.255341,168.449661 390.483582,169.890717 390.852692,172.047531 
	C390.974884,173.521866 390.956177,174.280426 390.609070,174.960052 
	C385.305786,170.537308 380.260681,166.270905 375.369781,161.834457 
	C363.177429,150.774963 350.231171,149.622849 337.728180,160.136337 
	C326.964142,169.187592 317.333099,179.582489 307.130341,189.309067 
	C305.617950,190.750916 303.715820,191.783936 301.853088,192.688354 
	C301.475586,191.247192 301.239014,190.123779 301.002441,189.000381 
	C301.238739,187.878830 301.475006,186.757294 301.852173,185.318771 
z"/>
<path fill="#E7C78B" opacity="1.000000" stroke="none" 
	d="
M390.937439,175.038986 
	C390.956177,174.280426 390.974884,173.521866 390.999237,172.384094 
	C400.527985,178.092529 407.176758,186.183411 407.900421,197.878632 
	C408.183685,202.455917 407.381744,207.100327 407.021729,212.081772 
	C406.969391,212.449371 406.963013,212.694580 406.551208,212.791931 
	C404.761597,212.767502 403.383728,212.645737 402.012970,212.161743 
	C402.448456,210.041641 402.703979,208.218979 403.334564,206.536911 
	C406.394653,198.374115 399.526428,182.654724 390.996948,177.632629 
	C390.974274,176.520721 390.955872,175.779846 390.937439,175.038986 
z"/>
<path fill="#EBB55F" opacity="1.000000" stroke="none" 
	d="
M300.665588,189.066833 
	C301.239014,190.123779 301.475586,191.247192 301.710510,193.006073 
	C299.568176,196.502563 297.491058,199.414001 295.270599,202.211685 
	C292.547211,205.643036 289.703949,208.979279 286.515259,212.450562 
	C284.763519,212.666962 283.408966,212.789413 282.054443,212.911865 
	C281.273346,212.818954 280.492218,212.726059 279.334656,212.516785 
	C279.299377,211.149292 279.246185,209.500336 280.043823,208.709686 
	C286.716888,202.094910 293.546387,195.637878 300.665588,189.066833 
z"/>
<path fill="#6CB58D" opacity="1.000000" stroke="none" 
	d="
M212.018570,245.997574 
	C210.085144,244.904388 207.849472,244.135681 206.269028,242.663559 
	C198.070877,235.027298 190.092682,227.155197 181.913040,219.498596 
	C179.916153,217.629379 177.449768,216.261749 175.102936,214.339417 
	C187.022476,214.008240 199.038300,214.001144 211.521545,213.991455 
	C211.988937,213.988831 212.019455,214.009674 212.021179,214.485138 
	C212.022644,222.091827 212.022720,229.223053 212.022003,236.354263 
	C212.021683,239.568695 212.019760,242.783142 212.018570,245.997574 
z"/>
<path fill="#7CBF9A" opacity="1.000000" stroke="none" 
	d="
M212.019165,246.394821 
	C212.019760,242.783142 212.021683,239.568695 212.022003,236.354263 
	C212.022720,229.223053 212.022644,222.091827 212.036240,214.495575 
	C232.052429,214.021973 252.055267,214.013412 272.461090,214.342316 
	C271.760681,216.101944 270.792328,217.658356 269.532867,218.925369 
	C257.723785,230.805115 245.872208,242.642685 234.017273,254.476761 
	C228.150986,260.332703 225.130035,260.216827 218.873886,254.471863 
	C216.895905,252.655502 214.354660,251.452499 212.071198,249.968796 
	C212.054047,248.909882 212.036896,247.850983 212.019165,246.394821 
z"/>
<path fill="#77B794" opacity="1.000000" stroke="none" 
	d="
M212.052917,250.347672 
	C214.354660,251.452499 216.895905,252.655502 218.873886,254.471863 
	C225.130035,260.216827 228.150986,260.332703 234.017273,254.476761 
	C245.872208,242.642685 257.723785,230.805115 269.532867,218.925369 
	C270.792328,217.658356 271.760681,216.101944 272.929413,214.343994 
	C275.362640,214.004868 277.730499,214.001495 280.481354,214.337143 
	C279.876862,215.985626 279.027191,217.432251 277.880981,218.583679 
	C263.797729,232.730972 249.688904,246.852966 235.547577,260.942261 
	C229.228699,267.237915 224.687439,267.232849 217.818344,261.384369 
	C216.138519,259.954132 213.967346,259.100952 212.010162,257.739136 
	C211.998260,257.495758 211.968750,257.009003 211.981155,256.608154 
	C211.996521,255.137985 211.999481,254.068634 212.002441,252.999283 
	C212.013168,252.241699 212.023895,251.484131 212.052917,250.347672 
z"/>
<path fill="#6CA988" opacity="1.000000" stroke="none" 
	d="
M212.022079,257.982483 
	C213.967346,259.100952 216.138519,259.954132 217.818344,261.384369 
	C224.687439,267.232849 229.228699,267.237915 235.547577,260.942261 
	C249.688904,246.852966 263.797729,232.730972 277.880981,218.583679 
	C279.027191,217.432251 279.876862,215.985626 280.924652,214.338867 
	C281.240631,213.776794 281.496246,213.552002 281.903168,213.119553 
	C283.408966,212.789413 284.763519,212.666962 286.918091,212.578812 
	C288.546051,212.755325 289.373993,212.897522 290.135925,213.380600 
	C271.199371,232.519241 252.328812,251.317001 232.970825,270.087585 
	C226.432632,270.399963 220.615692,270.131378 216.211029,264.987762 
	C215.595139,264.268524 214.101532,264.300964 212.991409,263.604431 
	C212.653107,261.476410 212.337585,259.729462 212.022079,257.982483 
z"/>
<path fill="#8CC6A6" opacity="1.000000" stroke="none" 
	d="
M389.989197,300.566925 
	C368.967224,301.051361 347.955414,301.063354 326.491150,300.693665 
	C327.181396,298.552216 328.059509,296.529510 329.507019,295.072510 
	C348.024567,276.433655 366.607788,257.859894 385.234802,239.330353 
	C386.594238,237.978027 388.420929,237.095398 390.030396,235.994415 
	C390.343842,237.254730 390.944305,238.518784 390.927887,239.774780 
	C390.664886,259.881989 390.323212,279.988129 389.989197,300.566925 
z"/>
<path fill="#86BD9F" opacity="1.000000" stroke="none" 
	d="
M390.028717,235.599030 
	C388.420929,237.095398 386.594238,237.978027 385.234802,239.330353 
	C366.607788,257.859894 348.024567,276.433655 329.507019,295.072510 
	C328.059509,296.529510 327.181396,298.552216 326.023193,300.677673 
	C324.628876,301.101959 323.250031,301.160522 321.058716,301.193085 
	C319.165802,301.125000 318.085327,301.082916 317.067444,300.699554 
	C318.348175,298.809143 319.424957,297.119232 320.806061,295.732361 
	C336.898865,279.572174 353.064758,263.484711 369.142670,247.309814 
	C372.651031,243.780289 375.682098,239.760315 379.311737,236.371994 
	C382.607697,233.295181 386.419342,230.770798 390.009369,228.406006 
	C390.038422,229.886108 390.061798,230.963074 390.085144,232.040039 
	C390.065796,233.094574 390.046417,234.149124 390.028717,235.599030 
z"/>
<path fill="#97C8AD" opacity="1.000000" stroke="none" 
	d="
M390.455200,232.025665 
	C390.061798,230.963074 390.038422,229.886108 390.016205,228.036316 
	C390.039856,226.524445 390.062408,225.785400 390.412109,224.965149 
	C394.163361,220.894516 397.587433,216.905106 401.263550,212.826492 
	C401.679016,212.666199 401.842468,212.595093 402.005890,212.523987 
	C403.383728,212.645737 404.761597,212.767502 406.554321,212.914520 
	C403.927002,221.276993 399.620575,228.544067 390.455200,232.025665 
z"/>
<path fill="#62A47F" opacity="1.000000" stroke="none" 
	d="
M211.665436,252.933350 
	C211.999481,254.068634 211.996521,255.137985 211.635910,256.541748 
	C209.825531,255.868546 208.219772,255.024002 206.944290,253.827408 
	C196.844666,244.352478 186.921249,234.684525 176.627853,225.427063 
	C175.111328,224.063156 171.932907,224.547134 169.267517,223.907013 
	C162.213333,220.360062 154.555710,221.434540 149.240555,226.567215 
	C141.517517,234.025116 133.869568,241.560791 126.189590,249.063309 
	C125.127586,246.978577 124.065582,244.893860 123.006348,242.404556 
	C124.817604,241.109070 126.913689,240.548645 128.384048,239.269135 
	C134.264954,234.151566 139.856445,228.701660 145.731598,223.577133 
	C155.213684,215.306503 171.857666,215.539230 182.572205,226.044296 
	C190.647186,233.961395 198.862991,241.735428 207.060211,249.526749 
	C208.363739,250.765732 209.899826,251.760025 211.665436,252.933350 
z"/>
<path fill="#FEFFFE" opacity="1.000000" stroke="none" 
	d="
M126.040833,249.369431 
	C133.869568,241.560791 141.517517,234.025116 149.240555,226.567215 
	C154.555710,221.434540 162.213333,220.360062 169.448029,224.204773 
	C173.384018,228.043747 176.962799,231.235748 180.368530,234.602783 
	C190.939590,245.053497 201.444885,255.570724 212.124146,266.355530 
	C214.485184,268.780548 216.697769,270.912170 219.037384,273.310150 
	C219.759232,274.076019 220.354065,274.575562 221.088409,275.367432 
	C222.368195,276.731262 223.508484,277.802734 224.854492,279.067535 
	C226.556946,277.221497 227.990601,275.666931 229.704498,273.973145 
	C231.142578,272.594177 232.300400,271.354462 233.458221,270.114746 
	C252.328812,251.317001 271.199371,232.519241 290.105774,213.353897 
	C290.141602,212.986313 290.069641,213.026016 290.392487,213.003693 
	C291.003693,212.666260 291.292053,212.351120 291.793793,211.985184 
	C292.355255,211.485138 292.703369,211.035904 293.335358,210.406235 
	C293.767822,209.827789 293.916382,209.429779 294.038757,209.074966 
	C294.012573,209.118164 294.098511,209.171310 294.388794,209.127899 
	C294.833893,208.749130 294.988739,208.413788 295.107208,208.089874 
	C295.070831,208.101288 295.099365,208.171997 295.389771,208.128784 
	C295.834656,207.750031 295.989136,207.414505 296.107483,207.090591 
	C296.071350,207.102188 296.100250,207.172409 296.390869,207.129623 
	C296.835663,206.751144 296.989899,206.415451 297.119965,206.048218 
	C297.095795,206.016693 297.032867,206.065216 297.369629,206.052673 
	C297.997620,205.705811 298.288879,205.371490 298.849701,204.936981 
	C300.420654,203.414551 301.722046,201.992310 303.340515,200.375107 
	C303.962189,199.792755 304.266846,199.405365 304.856079,198.901016 
	C317.180115,186.901978 329.195831,174.995712 341.268646,163.147675 
	C347.576721,156.957047 354.107544,156.061356 362.675842,160.322540 
	C363.235168,160.752762 363.618805,160.913116 363.939819,161.044342 
	C363.877136,161.015213 363.817505,161.139877 363.971558,161.437195 
	C373.030365,170.656448 381.935089,179.578400 390.936157,188.766983 
	C391.928009,190.282227 392.823486,191.530823 393.764038,193.252914 
	C395.577087,201.292328 392.325348,206.972107 386.667877,211.986603 
	C381.588531,217.193848 376.961029,222.411179 372.055939,227.352951 
	C347.707916,251.882782 323.286713,276.339966 298.585815,300.962891 
	C295.134796,304.290680 292.027222,307.516876 288.837402,310.659637 
	C270.182373,329.039581 251.508087,347.399994 232.480316,365.888733 
	C225.828781,368.800934 219.953537,368.241516 214.355347,363.540558 
	C211.526260,360.698456 208.878204,358.164734 206.275314,355.585419 
	C187.942825,337.418915 169.619629,319.242981 151.118134,300.768372 
	C143.029465,292.456543 135.287170,284.267090 127.140587,276.501709 
	C122.010040,271.611267 118.924339,266.243652 119.887497,259.005890 
	C121.889023,255.895782 123.890556,252.785660 126.040833,249.369431 
z"/>
<path fill="#569472" opacity="1.000000" stroke="none" 
	d="
M119.549423,259.157532 
	C118.924339,266.243652 122.010040,271.611267 127.140587,276.501709 
	C135.287170,284.267090 143.029465,292.456543 150.675262,300.781555 
	C149.232437,301.190674 148.057129,301.284821 146.468521,301.325928 
	C144.666260,301.321930 143.277328,301.370972 141.888382,301.419983 
	C141.888382,301.419983 141.906448,301.242523 141.885391,300.800476 
	C135.909866,294.235291 129.955399,288.112152 124.000946,281.989014 
	C117.754250,275.411102 115.074165,268.079956 119.549423,259.157532 
z"/>
<path fill="#61A37E" opacity="1.000000" stroke="none" 
	d="
M123.848938,282.340271 
	C129.955399,288.112152 135.909866,294.235291 141.909180,300.714539 
	C140.253525,301.074005 138.553024,301.077393 136.427155,301.062927 
	C133.494659,295.216827 129.581696,290.715210 123.372055,288.024353 
	C123.240623,286.235382 123.468781,284.463470 123.848938,282.340271 
z"/>
<path fill="#66AEC3" opacity="1.000000" stroke="none" 
	d="
M213.362457,374.064270 
	C212.696136,373.207916 212.397812,372.421936 212.170639,371.069214 
	C212.493607,369.998901 212.745422,369.495300 213.357086,369.059509 
	C223.332382,374.402130 232.706650,374.697357 241.595352,367.577606 
	C244.954453,364.887054 248.287231,362.122681 251.339493,359.096893 
	C266.321533,344.244934 281.171204,329.259308 296.174377,314.428864 
	C297.724823,312.896271 299.982513,312.079193 301.935425,311.312714 
	C301.968262,312.459351 301.977783,313.223358 301.936188,314.301971 
	C301.591797,315.412811 301.298553,316.209076 301.005280,317.005341 
	C299.281860,318.225128 297.346252,319.231079 295.867920,320.697876 
	C281.598602,334.855530 267.444519,349.129425 253.161270,363.272919 
	C250.108200,366.296082 246.805969,369.111420 243.376923,371.702789 
	C234.059753,378.743835 224.045471,378.585236 213.362457,374.064270 
z"/>
<path fill="#7EC2D8" opacity="1.000000" stroke="none" 
	d="
M301.007324,317.422974 
	C301.298553,316.209076 301.591797,315.412811 302.274536,314.239380 
	C306.461731,309.672638 310.259430,305.483032 314.424500,301.249969 
	C315.529541,301.151306 316.267181,301.096069 317.004852,301.040833 
	C318.085327,301.082916 319.165802,301.125000 320.647705,301.240173 
	C320.914948,302.289764 321.147644,303.645630 320.590363,304.184570 
	C314.382904,310.187256 308.053345,316.063629 301.400940,321.999390 
	C301.033234,320.630005 301.021332,319.235321 301.007324,317.422974 
z"/>
<path fill="#56A7C0" opacity="1.000000" stroke="none" 
	d="
M212.997253,368.991699 
	C212.745422,369.495300 212.493607,369.998901 212.120865,370.757111 
	C210.023041,369.863556 207.713089,369.058807 206.120560,367.514343 
	C189.510666,351.406006 172.906601,335.288116 156.552689,318.921326 
	C151.318237,313.682800 146.830383,307.698273 141.944641,301.737518 
	C143.277328,301.370972 144.666260,301.321930 146.523285,301.646332 
	C147.987946,303.504913 148.774307,305.199249 150.012619,306.443817 
	C168.182297,324.704956 186.373383,342.945374 204.681763,361.067078 
	C206.739304,363.103607 209.541489,364.387878 212.047546,366.332275 
	C212.396912,367.426239 212.697083,368.208984 212.997253,368.991699 
z"/>
<path fill="#DDB26D" opacity="1.000000" stroke="none" 
	d="
M303.023468,200.570068 
	C301.722046,201.992310 300.420654,203.414551 298.569672,205.074554 
	C297.691010,205.563309 297.361938,205.814270 297.032898,206.065216 
	C297.032867,206.065216 297.095795,206.016693 296.915283,206.198746 
	C296.523285,206.644669 296.311768,206.908554 296.100281,207.172424 
	C296.100250,207.172409 296.071350,207.102188 295.902863,207.241241 
	C295.522705,207.644196 295.311035,207.908096 295.099365,208.171997 
	C295.099365,208.171997 295.070831,208.101288 294.902527,208.240570 
	C294.522308,208.643661 294.310425,208.907486 294.098511,209.171310 
	C294.098511,209.171310 294.012573,209.118164 293.830017,209.305786 
	C293.448792,209.857819 293.250122,210.222244 293.051453,210.586670 
	C292.703369,211.035904 292.355255,211.485138 291.507568,212.096893 
	C290.695160,212.514954 290.382385,212.770477 290.069641,213.026016 
	C290.069641,213.026016 290.141602,212.986313 290.171753,213.013016 
	C289.373993,212.897522 288.546051,212.755325 287.315308,212.484894 
	C289.703949,208.979279 292.547211,205.643036 295.270599,202.211685 
	C297.491058,199.414001 299.568176,196.502563 301.851410,193.323822 
	C303.715820,191.783936 305.617950,190.750916 307.130341,189.309067 
	C317.333099,179.582489 326.964142,169.187592 337.728180,160.136337 
	C350.231171,149.622849 363.177429,150.774963 375.369781,161.834457 
	C380.260681,166.270905 385.305786,170.537308 390.609070,174.960052 
	C390.955872,175.779846 390.974274,176.520721 390.981110,177.957932 
	C390.663635,179.439713 390.357727,180.225143 389.759552,180.842377 
	C385.344482,176.649261 381.485748,172.296631 377.019592,168.697906 
	C373.089447,165.531128 370.076263,160.365295 363.817505,161.139877 
	C363.817505,161.139877 363.877136,161.015213 363.723083,160.829559 
	C363.212738,160.446838 362.856445,160.249756 362.500183,160.052673 
	C354.107544,156.061356 347.576721,156.957047 341.268646,163.147675 
	C329.195831,174.995712 317.180115,186.901978 304.547546,199.106506 
	C303.644104,199.809326 303.333801,200.189713 303.023468,200.570068 
z"/>
<path fill="#DFBA7D" opacity="1.000000" stroke="none" 
	d="
M390.051819,181.010574 
	C390.357727,180.225143 390.663635,179.439713 390.985352,178.328979 
	C399.526428,182.654724 406.394653,198.374115 403.334564,206.536911 
	C402.703979,208.218979 402.448456,210.041641 402.012970,212.161743 
	C401.842468,212.595093 401.679016,212.666199 400.951355,212.774139 
	C399.576080,212.583359 398.765045,212.355759 398.033875,211.731995 
	C398.554047,209.926239 399.029602,208.526581 399.428711,207.105423 
	C401.392700,200.112106 399.093994,187.551910 390.804230,183.741302 
	C390.417206,182.665176 390.234528,181.837875 390.051819,181.010574 
z"/>
<path fill="#5E9B7A" opacity="1.000000" stroke="none" 
	d="
M211.975708,266.062134 
	C201.444885,255.570724 190.939590,245.053497 180.368530,234.602783 
	C176.962799,231.235748 173.384018,228.043747 169.703903,224.473907 
	C171.932907,224.547134 175.111328,224.063156 176.627853,225.427063 
	C186.921249,234.684525 196.844666,244.352478 206.944290,253.827408 
	C208.219772,255.024002 209.825531,255.868546 211.623505,256.942596 
	C211.968750,257.009003 211.998260,257.495758 212.010162,257.739136 
	C212.337585,259.729462 212.653107,261.476410 212.864670,263.866028 
	C212.499054,265.026459 212.237381,265.544312 211.975708,266.062134 
z"/>
<path fill="#679D7F" opacity="1.000000" stroke="none" 
	d="
M212.124146,266.355530 
	C212.237381,265.544312 212.499054,265.026459 212.887466,264.247040 
	C214.101532,264.300964 215.595139,264.268524 216.211029,264.987762 
	C220.615692,270.131378 226.432632,270.399963 232.970825,270.087585 
	C232.300400,271.354462 231.142578,272.594177 229.243851,273.946472 
	C226.668167,274.036957 224.833374,274.014801 222.904785,273.689148 
	C221.510773,273.271698 220.210571,273.157745 218.910355,273.043823 
	C216.697769,270.912170 214.485184,268.780548 212.124146,266.355530 
z"/>
<path fill="#7BAE92" opacity="1.000000" stroke="none" 
	d="
M317.067444,300.699524 
	C316.267181,301.096069 315.529541,301.151306 314.055542,301.194397 
	C311.855835,301.355255 310.392456,301.528198 309.019043,301.385437 
	C310.154419,299.790955 311.104950,298.418732 312.259247,297.247223 
	C336.675049,272.467621 361.102295,247.699265 385.581818,222.982666 
	C386.812683,221.739883 388.534027,220.982864 390.206573,220.256714 
	C390.285736,222.024643 390.185333,223.535507 390.084930,225.046371 
	C390.062408,225.785400 390.039856,226.524445 390.010498,227.633179 
	C386.419342,230.770798 382.607697,233.295181 379.311737,236.371994 
	C375.682098,239.760315 372.651031,243.780289 369.142670,247.309814 
	C353.064758,263.484711 336.898865,279.572174 320.806061,295.732361 
	C319.424957,297.119232 318.348175,298.809143 317.067444,300.699524 
z"/>
<path fill="#8DBBA2" opacity="1.000000" stroke="none" 
	d="
M390.412109,224.965149 
	C390.185333,223.535507 390.285736,222.024643 390.213135,219.932861 
	C390.058319,218.920380 390.076538,218.488815 390.414978,217.976349 
	C392.471680,216.251663 394.208221,214.607880 395.988281,212.768890 
	C396.031830,212.573654 396.131989,212.186325 396.436401,212.194016 
	C397.145203,212.177185 397.549622,212.152679 397.954010,212.128174 
	C398.765045,212.355759 399.576080,212.583359 400.699341,212.863312 
	C397.587433,216.905106 394.163361,220.894516 390.412109,224.965149 
z"/>
<path fill="#6B957E" opacity="1.000000" stroke="none" 
	d="
M390.094757,218.057251 
	C390.076538,218.488815 390.058319,218.920380 390.033569,219.675812 
	C388.534027,220.982864 386.812683,221.739883 385.581818,222.982666 
	C361.102295,247.699265 336.675049,272.467621 312.259247,297.247223 
	C311.104950,298.418732 310.154419,299.790955 308.783081,301.451569 
	C308.457184,301.833435 307.981659,301.946838 307.607269,301.934753 
	C306.483307,301.948486 305.733704,301.974243 304.609375,301.982910 
	C303.484436,301.972137 302.734283,301.978424 301.642944,301.958374 
	C300.498260,301.562286 299.694794,301.192505 298.891296,300.822723 
	C323.286713,276.339966 347.707916,251.882782 372.055939,227.352951 
	C376.961029,222.411179 381.588531,217.193848 386.948853,212.197113 
	C388.707184,212.510925 389.860626,212.731186 390.987427,213.323517 
	C390.672089,215.149460 390.383423,216.603363 390.094757,218.057251 
z"/>
<path fill="#5D9EB1" opacity="1.000000" stroke="none" 
	d="
M301.984131,301.984680 
	C302.734283,301.978424 303.484436,301.972137 304.549377,302.318665 
	C303.916504,304.447937 302.968811,306.224396 302.010559,308.367828 
	C301.970703,309.466614 301.941406,310.198364 301.912079,310.930115 
	C299.982513,312.079193 297.724823,312.896271 296.174377,314.428864 
	C281.171204,329.259308 266.321533,344.244934 251.339493,359.096893 
	C248.287231,362.122681 244.954453,364.887054 241.595352,367.577606 
	C232.706650,374.697357 223.332382,374.402130 213.357101,369.059509 
	C212.697083,368.208984 212.396912,367.426239 212.232880,366.041718 
	C213.098434,364.902557 213.827866,364.365204 214.557297,363.827820 
	C219.953537,368.241516 225.828781,368.800934 232.744125,366.138885 
	C235.210602,365.973480 237.360199,366.179260 238.828949,365.276886 
	C241.487640,363.643372 243.901962,361.512604 246.136719,359.304474 
	C264.121124,341.534332 282.054871,323.712708 299.937714,305.840454 
	C300.921600,304.857147 301.315582,303.283539 301.984131,301.984680 
z"/>
<path fill="#4E97AC" opacity="1.000000" stroke="none" 
	d="
M214.355347,363.540558 
	C213.827866,364.365204 213.098434,364.902557 212.183670,365.730469 
	C209.541489,364.387878 206.739304,363.103607 204.681763,361.067078 
	C186.373383,342.945374 168.182297,324.704956 150.012619,306.443817 
	C148.774307,305.199249 147.987946,303.504913 146.936615,301.699402 
	C148.057129,301.284821 149.232437,301.190674 150.850586,301.083313 
	C169.619629,319.242981 187.942825,337.418915 206.275314,355.585419 
	C208.878204,358.164734 211.526260,360.698456 214.355347,363.540558 
z"/>
<path fill="#548FA1" opacity="1.000000" stroke="none" 
	d="
M301.642944,301.958374 
	C301.315582,303.283539 300.921600,304.857147 299.937714,305.840454 
	C282.054871,323.712708 264.121124,341.534332 246.136719,359.304474 
	C243.901962,361.512604 241.487640,363.643372 238.828949,365.276886 
	C237.360199,366.179260 235.210602,365.973480 233.104111,366.017090 
	C251.508087,347.399994 270.182373,329.039581 288.837402,310.659637 
	C292.027222,307.516876 295.134796,304.290680 298.585815,300.962891 
	C299.694794,301.192505 300.498260,301.562286 301.642944,301.958374 
z"/>
<path fill="#CBA464" opacity="1.000000" stroke="none" 
	d="
M389.759552,180.842377 
	C390.234528,181.837875 390.417206,182.665176 390.797729,184.192017 
	C390.943634,186.094482 390.891724,187.297409 390.839813,188.500336 
	C381.935089,179.578400 373.030365,170.656448 363.971558,161.437195 
	C370.076263,160.365295 373.089447,165.531128 377.019592,168.697906 
	C381.485748,172.296631 385.344482,176.649261 389.759552,180.842377 
z"/>
<path fill="#D0AE76" opacity="1.000000" stroke="none" 
	d="
M390.936157,188.766983 
	C390.891724,187.297409 390.943634,186.094482 391.002075,184.440826 
	C399.093994,187.551910 401.392700,200.112106 399.428711,207.105423 
	C399.029602,208.526581 398.554047,209.926239 398.033875,211.731995 
	C397.549622,212.152679 397.145203,212.177185 396.207214,211.905106 
	C395.889648,209.893600 396.244049,208.182800 396.295319,206.462982 
	C396.436432,201.726547 397.399048,196.805923 393.718933,192.779434 
	C392.823486,191.530823 391.928009,190.282227 390.936157,188.766983 
z"/>
<path fill="#BEA16E" opacity="1.000000" stroke="none" 
	d="
M393.764038,193.252914 
	C397.399048,196.805923 396.436432,201.726547 396.295319,206.462982 
	C396.244049,208.182800 395.889648,209.893600 395.902771,211.897415 
	C396.131989,212.186325 396.031830,212.573654 395.579285,212.751038 
	C393.755859,212.936081 392.384949,212.943771 391.014069,212.951447 
	C389.860626,212.731186 388.707184,212.510925 387.272766,212.080139 
	C392.325348,206.972107 395.577087,201.292328 393.764038,193.252914 
z"/>
<path fill="#5D9074" opacity="1.000000" stroke="none" 
	d="
M222.998581,273.992676 
	C224.833374,274.014801 226.668167,274.036957 228.963593,274.085754 
	C227.990601,275.666931 226.556946,277.221497 224.854492,279.067535 
	C223.508484,277.802734 222.368195,276.731262 221.296265,275.154755 
	C221.909286,274.430725 222.453934,274.211700 222.998581,273.992676 
z"/>
<path fill="#5E9B7A" opacity="1.000000" stroke="none" 
	d="
M222.904785,273.689148 
	C222.453934,274.211700 221.909286,274.430725 221.156769,274.862427 
	C220.354065,274.575562 219.759232,274.076019 219.037384,273.310150 
	C220.210571,273.157745 221.510773,273.271698 222.904785,273.689148 
z"/>
<path fill="#C6B16C" opacity="1.000000" stroke="none" 
	d="
M290.392487,213.003693 
	C290.382385,212.770477 290.695160,212.514954 291.294189,212.147705 
	C291.292053,212.351120 291.003693,212.666260 290.392487,213.003693 
z"/>
<path fill="#CBA464" opacity="1.000000" stroke="none" 
	d="
M362.675842,160.322540 
	C362.856445,160.249756 363.212738,160.446838 363.785736,160.858704 
	C363.618805,160.913116 363.235168,160.752762 362.675842,160.322540 
z"/>
<path fill="#C6B16C" opacity="1.000000" stroke="none" 
	d="
M303.340515,200.375122 
	C303.333801,200.189713 303.644104,199.809326 304.262939,199.223450 
	C304.266846,199.405365 303.962189,199.792755 303.340515,200.375122 
z"/>
<path fill="#C6B16C" opacity="1.000000" stroke="none" 
	d="
M297.369629,206.052673 
	C297.361938,205.814270 297.691010,205.563309 298.300110,205.174759 
	C298.288879,205.371490 297.997620,205.705811 297.369629,206.052673 
z"/>
<path fill="#C6B16C" opacity="1.000000" stroke="none" 
	d="
M296.390869,207.129639 
	C296.311768,206.908554 296.523285,206.644669 296.939453,206.230286 
	C296.989899,206.415451 296.835663,206.751144 296.390869,207.129639 
z"/>
<path fill="#C6B16C" opacity="1.000000" stroke="none" 
	d="
M295.389771,208.128784 
	C295.311035,207.908096 295.522705,207.644196 295.939026,207.229645 
	C295.989136,207.414505 295.834656,207.750031 295.389771,208.128784 
z"/>
<path fill="#C6B16C" opacity="1.000000" stroke="none" 
	d="
M294.388794,209.127899 
	C294.310425,208.907486 294.522308,208.643661 294.938904,208.229156 
	C294.988739,208.413788 294.833893,208.749130 294.388794,209.127899 
z"/>
<path fill="#C6B16C" opacity="1.000000" stroke="none" 
	d="
M293.335358,210.406235 
	C293.250122,210.222244 293.448792,209.857819 293.856201,209.262589 
	C293.916382,209.429779 293.767822,209.827789 293.335358,210.406235 
z"/>
<path fill="#78B8C8" opacity="1.000000" stroke="none" 
	d="
M301.935425,311.312744 
	C301.941406,310.198364 301.970703,309.466614 302.344727,308.302032 
	C304.453491,305.895111 306.217590,303.920959 307.981659,301.946838 
	C307.981659,301.946838 308.457184,301.833435 308.693115,301.767303 
	C310.392456,301.528198 311.855835,301.355255 313.688171,301.237854 
	C310.259430,305.483032 306.461731,309.672638 302.325684,313.924805 
	C301.977783,313.223358 301.968262,312.459351 301.935425,311.312744 
z"/>
<path fill="#7BAE92" opacity="1.000000" stroke="none" 
	d="
M390.987427,213.323517 
	C392.384949,212.943771 393.755859,212.936081 395.535736,212.946259 
	C394.208221,214.607880 392.471680,216.251663 390.414978,217.976349 
	C390.383423,216.603363 390.672089,215.149460 390.987427,213.323517 
z"/>
<path fill="#66AEC3" opacity="1.000000" stroke="none" 
	d="
M307.607269,301.934753 
	C306.217590,303.920959 304.453491,305.895111 302.355286,307.935028 
	C302.968811,306.224396 303.916504,304.447937 304.924164,302.335754 
	C305.733704,301.974243 306.483307,301.948486 307.607269,301.934753 
z"/>
</svg>